<?xml version="1.0" encoding="UTF-8"?>
<svg width="34px" height="34px" viewBox="0 0 34 34" version="1.1" xmlns="http://www.w3.org/2000/svg" xmlns:xlink="http://www.w3.org/1999/xlink">
    <!-- Generator: Sketch 64 (93537) - https://sketch.com -->
    <title>icon</title>
    <desc>Created with Sketch.</desc>
    <defs>
        <rect id="path-1" x="0" y="0" width="32" height="32" rx="2.56"></rect>
        <filter x="-4.7%" y="-4.7%" width="109.4%" height="109.4%" filterUnits="objectBoundingBox" id="filter-2">
            <feOffset dx="0" dy="0" in="SourceAlpha" result="shadowOffsetOuter1"></feOffset>
            <feGaussianBlur stdDeviation="0.5" in="shadowOffsetOuter1" result="shadowBlurOuter1"></feGaussianBlur>
            <feComposite in="shadowBlurOuter1" in2="SourceAlpha" operator="out" result="shadowBlurOuter1"></feComposite>
            <feColorMatrix values="0 0 0 0 0   0 0 0 0 0   0 0 0 0 0  0 0 0 0.0884779283 0" type="matrix" in="shadowBlurOuter1"></feColorMatrix>
        </filter>
    </defs>
    <g id="Page-1" stroke="none" stroke-width="1" fill="none" fill-rule="evenodd">
        <g id="Artboard" transform="translate(-16.000000, -17.000000)">
            <g id="icon" transform="translate(17.000000, 18.000000)">
                <g id="Rectangle">
                    <use fill="black" fill-opacity="1" filter="url(#filter-2)" xlink:href="#path-1"></use>
                    <rect stroke-opacity="0.153026661" stroke="#000000" stroke-width="0.5" stroke-linejoin="square" fill="#FAFAFA" fill-rule="evenodd" x="0.25" y="0.25" width="31.5" height="31.5" rx="2.56"></rect>
                </g>
                <g id="qr-easy-" transform="translate(3.200000, 3.200000)" fill="#000000" fill-rule="nonzero">
                    <g id="Group">
                        <g id="p-link">
                            <rect id="p" x="0" y="0" width="1.21904762" height="1.21904762"></rect>
                        </g>
                        <g id="p-link" transform="translate(0.000000, 1.219048)">
                            <rect id="p" x="0" y="0" width="1.21904762" height="1.21904762"></rect>
                        </g>
                        <g id="p-link" transform="translate(0.000000, 2.438095)">
                            <rect id="p" x="0" y="0" width="1.21904762" height="1.21904762"></rect>
                        </g>
                        <g id="p-link" transform="translate(0.000000, 3.657143)">
                            <rect id="p" x="0" y="0" width="1.21904762" height="1.21904762"></rect>
                        </g>
                        <g id="p-link" transform="translate(0.000000, 4.876190)">
                            <rect id="p" x="0" y="0" width="1.21904762" height="1.21904762"></rect>
                        </g>
                        <g id="p-link" transform="translate(0.000000, 6.095238)">
                            <rect id="p" x="0" y="0" width="1.21904762" height="1.21904762"></rect>
                        </g>
                        <g id="p-link" transform="translate(0.000000, 7.314286)">
                            <rect id="p" x="0" y="0" width="1.21904762" height="1.21904762"></rect>
                        </g>
                        <g id="p-link" transform="translate(0.000000, 9.752381)">
                            <rect id="p" x="0" y="0" width="1.21904762" height="1.21904762"></rect>
                        </g>
                        <g id="p-link" transform="translate(0.000000, 12.190476)">
                            <rect id="p" x="0" y="0" width="1.21904762" height="1.21904762"></rect>
                        </g>
                        <g id="p-link" transform="translate(0.000000, 13.409524)">
                            <rect id="p" x="0" y="0" width="1.21904762" height="1.21904762"></rect>
                        </g>
                        <g id="p-link" transform="translate(0.000000, 14.628571)">
                            <rect id="p" x="0" y="0" width="1.21904762" height="1.21904762"></rect>
                        </g>
                        <g id="p-link" transform="translate(0.000000, 17.066667)">
                            <rect id="p" x="0" y="0" width="1.21904762" height="1.21904762"></rect>
                        </g>
                        <g id="p-link" transform="translate(0.000000, 18.285714)">
                            <rect id="p" x="0" y="0" width="1.21904762" height="1.21904762"></rect>
                        </g>
                        <g id="p-link" transform="translate(0.000000, 19.504762)">
                            <rect id="p" x="0" y="0" width="1.21904762" height="1.21904762"></rect>
                        </g>
                        <g id="p-link" transform="translate(0.000000, 20.723810)">
                            <rect id="p" x="0" y="0" width="1.21904762" height="1.21904762"></rect>
                        </g>
                        <g id="p-link" transform="translate(0.000000, 21.942857)">
                            <rect id="p" x="0" y="0" width="1.21904762" height="1.21904762"></rect>
                        </g>
                        <g id="p-link" transform="translate(0.000000, 23.161905)">
                            <rect id="p" x="0" y="0" width="1.21904762" height="1.21904762"></rect>
                        </g>
                        <g id="p-link" transform="translate(0.000000, 24.380952)">
                            <rect id="p" x="0" y="0" width="1.21904762" height="1.21904762"></rect>
                        </g>
                        <g id="p-link" transform="translate(1.219048, 0.000000)">
                            <rect id="p" x="0" y="0" width="1.21904762" height="1.21904762"></rect>
                        </g>
                        <g id="p-link" transform="translate(1.219048, 7.314286)">
                            <rect id="p" x="0" y="0" width="1.21904762" height="1.21904762"></rect>
                        </g>
                        <g id="p-link" transform="translate(1.219048, 9.752381)">
                            <rect id="p" x="0" y="0" width="1.21904762" height="1.21904762"></rect>
                        </g>
                        <g id="p-link" transform="translate(1.219048, 12.190476)">
                            <rect id="p" x="0" y="0" width="1.21904762" height="1.21904762"></rect>
                        </g>
                        <g id="p-link" transform="translate(1.219048, 14.628571)">
                            <rect id="p" x="0" y="0" width="1.21904762" height="1.21904762"></rect>
                        </g>
                        <g id="p-link" transform="translate(1.219048, 17.066667)">
                            <rect id="p" x="0" y="0" width="1.21904762" height="1.21904762"></rect>
                        </g>
                        <g id="p-link" transform="translate(1.219048, 24.380952)">
                            <rect id="p" x="0" y="0" width="1.21904762" height="1.21904762"></rect>
                        </g>
                        <g id="p-link" transform="translate(2.438095, 0.000000)">
                            <rect id="p" x="0" y="0" width="1.21904762" height="1.21904762"></rect>
                        </g>
                        <g id="p-link" transform="translate(2.438095, 2.438095)">
                            <rect id="p" x="0" y="0" width="1.21904762" height="1.21904762"></rect>
                        </g>
                        <g id="p-link" transform="translate(2.438095, 3.657143)">
                            <rect id="p" x="0" y="0" width="1.21904762" height="1.21904762"></rect>
                        </g>
                        <g id="p-link" transform="translate(2.438095, 4.876190)">
                            <rect id="p" x="0" y="0" width="1.21904762" height="1.21904762"></rect>
                        </g>
                        <g id="p-link" transform="translate(2.438095, 7.314286)">
                            <rect id="p" x="0" y="0" width="1.21904762" height="1.21904762"></rect>
                        </g>
                        <g id="p-link" transform="translate(2.438095, 12.190476)">
                            <rect id="p" x="0" y="0" width="1.21904762" height="1.21904762"></rect>
                        </g>
                        <g id="p-link" transform="translate(2.438095, 13.409524)">
                            <rect id="p" x="0" y="0" width="1.21904762" height="1.21904762"></rect>
                        </g>
                        <g id="p-link" transform="translate(2.438095, 14.628571)">
                            <rect id="p" x="0" y="0" width="1.21904762" height="1.21904762"></rect>
                        </g>
                        <g id="p-link" transform="translate(2.438095, 17.066667)">
                            <rect id="p" x="0" y="0" width="1.21904762" height="1.21904762"></rect>
                        </g>
                        <g id="p-link" transform="translate(2.438095, 19.504762)">
                            <rect id="p" x="0" y="0" width="1.21904762" height="1.21904762"></rect>
                        </g>
                        <g id="p-link" transform="translate(2.438095, 20.723810)">
                            <rect id="p" x="0" y="0" width="1.21904762" height="1.21904762"></rect>
                        </g>
                        <g id="p-link" transform="translate(2.438095, 21.942857)">
                            <rect id="p" x="0" y="0" width="1.21904762" height="1.21904762"></rect>
                        </g>
                        <g id="p-link" transform="translate(2.438095, 24.380952)">
                            <rect id="p" x="0" y="0" width="1.21904762" height="1.21904762"></rect>
                        </g>
                        <g id="p-link" transform="translate(3.657143, 0.000000)">
                            <rect id="p" x="0" y="0" width="1.21904762" height="1.21904762"></rect>
                        </g>
                        <g id="p-link" transform="translate(3.657143, 2.438095)">
                            <rect id="p" x="0" y="0" width="1.21904762" height="1.21904762"></rect>
                        </g>
                        <g id="p-link" transform="translate(3.657143, 3.657143)">
                            <rect id="p" x="0" y="0" width="1.21904762" height="1.21904762"></rect>
                        </g>
                        <g id="p-link" transform="translate(3.657143, 4.876190)">
                            <rect id="p" x="0" y="0" width="1.21904762" height="1.21904762"></rect>
                        </g>
                        <g id="p-link" transform="translate(3.657143, 7.314286)">
                            <rect id="p" x="0" y="0" width="1.21904762" height="1.21904762"></rect>
                        </g>
                        <g id="p-link" transform="translate(3.657143, 9.752381)">
                            <rect id="p" x="0" y="0" width="1.21904762" height="1.21904762"></rect>
                        </g>
                        <g id="p-link" transform="translate(3.657143, 10.971429)">
                            <rect id="p" x="0" y="0" width="1.21904762" height="1.21904762"></rect>
                        </g>
                        <g id="p-link" transform="translate(3.657143, 14.628571)">
                            <rect id="p" x="0" y="0" width="1.21904762" height="1.21904762"></rect>
                        </g>
                        <g id="p-link" transform="translate(3.657143, 17.066667)">
                            <rect id="p" x="0" y="0" width="1.21904762" height="1.21904762"></rect>
                        </g>
                        <g id="p-link" transform="translate(3.657143, 19.504762)">
                            <rect id="p" x="0" y="0" width="1.21904762" height="1.21904762"></rect>
                        </g>
                        <g id="p-link" transform="translate(3.657143, 20.723810)">
                            <rect id="p" x="0" y="0" width="1.21904762" height="1.21904762"></rect>
                        </g>
                        <g id="p-link" transform="translate(3.657143, 21.942857)">
                            <rect id="p" x="0" y="0" width="1.21904762" height="1.21904762"></rect>
                        </g>
                        <g id="p-link" transform="translate(3.657143, 24.380952)">
                            <rect id="p" x="0" y="0" width="1.21904762" height="1.21904762"></rect>
                        </g>
                        <g id="p-link" transform="translate(4.876190, 0.000000)">
                            <rect id="p" x="0" y="0" width="1.21904762" height="1.21904762"></rect>
                        </g>
                        <g id="p-link" transform="translate(4.876190, 2.438095)">
                            <rect id="p" x="0" y="0" width="1.21904762" height="1.21904762"></rect>
                        </g>
                        <g id="p-link" transform="translate(4.876190, 3.657143)">
                            <rect id="p" x="0" y="0" width="1.21904762" height="1.21904762"></rect>
                        </g>
                        <g id="p-link" transform="translate(4.876190, 4.876190)">
                            <rect id="p" x="0" y="0" width="1.21904762" height="1.21904762"></rect>
                        </g>
                        <g id="p-link" transform="translate(4.876190, 7.314286)">
                            <rect id="p" x="0" y="0" width="1.21904762" height="1.21904762"></rect>
                        </g>
                        <g id="p-link" transform="translate(4.876190, 14.628571)">
                            <rect id="p" x="0" y="0" width="1.21904762" height="1.21904762"></rect>
                        </g>
                        <g id="p-link" transform="translate(4.876190, 17.066667)">
                            <rect id="p" x="0" y="0" width="1.21904762" height="1.21904762"></rect>
                        </g>
                        <g id="p-link" transform="translate(4.876190, 19.504762)">
                            <rect id="p" x="0" y="0" width="1.21904762" height="1.21904762"></rect>
                        </g>
                        <g id="p-link" transform="translate(4.876190, 20.723810)">
                            <rect id="p" x="0" y="0" width="1.21904762" height="1.21904762"></rect>
                        </g>
                        <g id="p-link" transform="translate(4.876190, 21.942857)">
                            <rect id="p" x="0" y="0" width="1.21904762" height="1.21904762"></rect>
                        </g>
                        <g id="p-link" transform="translate(4.876190, 24.380952)">
                            <rect id="p" x="0" y="0" width="1.21904762" height="1.21904762"></rect>
                        </g>
                        <g id="p-link" transform="translate(6.095238, 0.000000)">
                            <rect id="p" x="0" y="0" width="1.21904762" height="1.21904762"></rect>
                        </g>
                        <g id="p-link" transform="translate(6.095238, 7.314286)">
                            <rect id="p" x="0" y="0" width="1.21904762" height="1.21904762"></rect>
                        </g>
                        <g id="p-link" transform="translate(6.095238, 10.971429)">
                            <rect id="p" x="0" y="0" width="1.21904762" height="1.21904762"></rect>
                        </g>
                        <g id="p-link" transform="translate(6.095238, 12.190476)">
                            <rect id="p" x="0" y="0" width="1.21904762" height="1.21904762"></rect>
                        </g>
                        <g id="p-link" transform="translate(6.095238, 14.628571)">
                            <rect id="p" x="0" y="0" width="1.21904762" height="1.21904762"></rect>
                        </g>
                        <g id="p-link" transform="translate(6.095238, 17.066667)">
                            <rect id="p" x="0" y="0" width="1.21904762" height="1.21904762"></rect>
                        </g>
                        <g id="p-link" transform="translate(6.095238, 24.380952)">
                            <rect id="p" x="0" y="0" width="1.21904762" height="1.21904762"></rect>
                        </g>
                        <g id="p-link" transform="translate(7.314286, 0.000000)">
                            <rect id="p" x="0" y="0" width="1.21904762" height="1.21904762"></rect>
                        </g>
                        <g id="p-link" transform="translate(7.314286, 1.219048)">
                            <rect id="p" x="0" y="0" width="1.21904762" height="1.21904762"></rect>
                        </g>
                        <g id="p-link" transform="translate(7.314286, 2.438095)">
                            <rect id="p" x="0" y="0" width="1.21904762" height="1.21904762"></rect>
                        </g>
                        <g id="p-link" transform="translate(7.314286, 3.657143)">
                            <rect id="p" x="0" y="0" width="1.21904762" height="1.21904762"></rect>
                        </g>
                        <g id="p-link" transform="translate(7.314286, 4.876190)">
                            <rect id="p" x="0" y="0" width="1.21904762" height="1.21904762"></rect>
                        </g>
                        <g id="p-link" transform="translate(7.314286, 6.095238)">
                            <rect id="p" x="0" y="0" width="1.21904762" height="1.21904762"></rect>
                        </g>
                        <g id="p-link" transform="translate(7.314286, 7.314286)">
                            <rect id="p" x="0" y="0" width="1.21904762" height="1.21904762"></rect>
                        </g>
                        <g id="p-link" transform="translate(7.314286, 9.752381)">
                            <rect id="p" x="0" y="0" width="1.21904762" height="1.21904762"></rect>
                        </g>
                        <g id="p-link" transform="translate(7.314286, 12.190476)">
                            <rect id="p" x="0" y="0" width="1.21904762" height="1.21904762"></rect>
                        </g>
                        <g id="p-link" transform="translate(7.314286, 14.628571)">
                            <rect id="p" x="0" y="0" width="1.21904762" height="1.21904762"></rect>
                        </g>
                        <g id="p-link" transform="translate(7.314286, 17.066667)">
                            <rect id="p" x="0" y="0" width="1.21904762" height="1.21904762"></rect>
                        </g>
                        <g id="p-link" transform="translate(7.314286, 18.285714)">
                            <rect id="p" x="0" y="0" width="1.21904762" height="1.21904762"></rect>
                        </g>
                        <g id="p-link" transform="translate(7.314286, 19.504762)">
                            <rect id="p" x="0" y="0" width="1.21904762" height="1.21904762"></rect>
                        </g>
                        <g id="p-link" transform="translate(7.314286, 20.723810)">
                            <rect id="p" x="0" y="0" width="1.21904762" height="1.21904762"></rect>
                        </g>
                        <g id="p-link" transform="translate(7.314286, 21.942857)">
                            <rect id="p" x="0" y="0" width="1.21904762" height="1.21904762"></rect>
                        </g>
                        <g id="p-link" transform="translate(7.314286, 23.161905)">
                            <rect id="p" x="0" y="0" width="1.21904762" height="1.21904762"></rect>
                        </g>
                        <g id="p-link" transform="translate(7.314286, 24.380952)">
                            <rect id="p" x="0" y="0" width="1.21904762" height="1.21904762"></rect>
                        </g>
                        <g id="p-link" transform="translate(8.533333, 9.752381)">
                            <rect id="p" x="0" y="0" width="1.21904762" height="1.21904762"></rect>
                        </g>
                        <g id="p-link" transform="translate(8.533333, 10.971429)">
                            <rect id="p" x="0" y="0" width="1.21904762" height="1.21904762"></rect>
                        </g>
                        <g id="p-link" transform="translate(8.533333, 13.409524)">
                            <rect id="p" x="0" y="0" width="1.21904762" height="1.21904762"></rect>
                        </g>
                        <g id="p-link" transform="translate(8.533333, 14.628571)">
                            <rect id="p" x="0" y="0" width="1.21904762" height="1.21904762"></rect>
                        </g>
                        <g id="p-link" transform="translate(9.752381, 1.219048)">
                            <rect id="p" x="0" y="0" width="1.21904762" height="1.21904762"></rect>
                        </g>
                        <g id="p-link" transform="translate(9.752381, 2.438095)">
                            <rect id="p" x="0" y="0" width="1.21904762" height="1.21904762"></rect>
                        </g>
                        <g id="p-link" transform="translate(9.752381, 4.876190)">
                            <rect id="p" x="0" y="0" width="1.21904762" height="1.21904762"></rect>
                        </g>
                        <g id="p-link" transform="translate(9.752381, 6.095238)">
                            <rect id="p" x="0" y="0" width="1.21904762" height="1.21904762"></rect>
                        </g>
                        <g id="p-link" transform="translate(9.752381, 7.314286)">
                            <rect id="p" x="0" y="0" width="1.21904762" height="1.21904762"></rect>
                        </g>
                        <g id="p-link" transform="translate(9.752381, 8.533333)">
                            <rect id="p" x="0" y="0" width="1.21904762" height="1.21904762"></rect>
                        </g>
                        <g id="p-link" transform="translate(9.752381, 13.409524)">
                            <rect id="p" x="0" y="0" width="1.21904762" height="1.21904762"></rect>
                        </g>
                        <g id="p-link" transform="translate(9.752381, 14.628571)">
                            <rect id="p" x="0" y="0" width="1.21904762" height="1.21904762"></rect>
                        </g>
                        <g id="p-link" transform="translate(9.752381, 15.847619)">
                            <rect id="p" x="0" y="0" width="1.21904762" height="1.21904762"></rect>
                        </g>
                        <g id="p-link" transform="translate(9.752381, 17.066667)">
                            <rect id="p" x="0" y="0" width="1.21904762" height="1.21904762"></rect>
                        </g>
                        <g id="p-link" transform="translate(9.752381, 20.723810)">
                            <rect id="p" x="0" y="0" width="1.21904762" height="1.21904762"></rect>
                        </g>
                        <g id="p-link" transform="translate(9.752381, 23.161905)">
                            <rect id="p" x="0" y="0" width="1.21904762" height="1.21904762"></rect>
                        </g>
                        <g id="p-link" transform="translate(9.752381, 24.380952)">
                            <rect id="p" x="0" y="0" width="1.21904762" height="1.21904762"></rect>
                        </g>
                        <g id="p-link" transform="translate(10.971429, 0.000000)">
                            <rect id="p" x="0" y="0" width="1.21904762" height="1.21904762"></rect>
                        </g>
                        <g id="p-link" transform="translate(10.971429, 1.219048)">
                            <rect id="p" x="0" y="0" width="1.21904762" height="1.21904762"></rect>
                        </g>
                        <g id="p-link" transform="translate(10.971429, 2.438095)">
                            <rect id="p" x="0" y="0" width="1.21904762" height="1.21904762"></rect>
                        </g>
                        <g id="p-link" transform="translate(10.971429, 3.657143)">
                            <rect id="p" x="0" y="0" width="1.21904762" height="1.21904762"></rect>
                        </g>
                        <g id="p-link" transform="translate(10.971429, 8.533333)">
                            <rect id="p" x="0" y="0" width="1.21904762" height="1.21904762"></rect>
                        </g>
                        <g id="p-link" transform="translate(10.971429, 9.752381)">
                            <rect id="p" x="0" y="0" width="1.21904762" height="1.21904762"></rect>
                        </g>
                        <g id="p-link" transform="translate(10.971429, 14.628571)">
                            <rect id="p" x="0" y="0" width="1.21904762" height="1.21904762"></rect>
                        </g>
                        <g id="p-link" transform="translate(10.971429, 19.504762)">
                            <rect id="p" x="0" y="0" width="1.21904762" height="1.21904762"></rect>
                        </g>
                        <g id="p-link" transform="translate(10.971429, 20.723810)">
                            <rect id="p" x="0" y="0" width="1.21904762" height="1.21904762"></rect>
                        </g>
                        <g id="p-link" transform="translate(10.971429, 23.161905)">
                            <rect id="p" x="0" y="0" width="1.21904762" height="1.21904762"></rect>
                        </g>
                        <g id="p-link" transform="translate(12.190476, 7.314286)">
                            <rect id="p" x="0" y="0" width="1.21904762" height="1.21904762"></rect>
                        </g>
                        <g id="p-link" transform="translate(12.190476, 8.533333)">
                            <rect id="p" x="0" y="0" width="1.21904762" height="1.21904762"></rect>
                        </g>
                        <g id="p-link" transform="translate(12.190476, 9.752381)">
                            <rect id="p" x="0" y="0" width="1.21904762" height="1.21904762"></rect>
                        </g>
                        <g id="p-link" transform="translate(12.190476, 10.971429)">
                            <rect id="p" x="0" y="0" width="1.21904762" height="1.21904762"></rect>
                        </g>
                        <g id="p-link" transform="translate(12.190476, 13.409524)">
                            <rect id="p" x="0" y="0" width="1.21904762" height="1.21904762"></rect>
                        </g>
                        <g id="p-link" transform="translate(12.190476, 14.628571)">
                            <rect id="p" x="0" y="0" width="1.21904762" height="1.21904762"></rect>
                        </g>
                        <g id="p-link" transform="translate(12.190476, 17.066667)">
                            <rect id="p" x="0" y="0" width="1.21904762" height="1.21904762"></rect>
                        </g>
                        <g id="p-link" transform="translate(12.190476, 20.723810)">
                            <rect id="p" x="0" y="0" width="1.21904762" height="1.21904762"></rect>
                        </g>
                        <g id="p-link" transform="translate(12.190476, 24.380952)">
                            <rect id="p" x="0" y="0" width="1.21904762" height="1.21904762"></rect>
                        </g>
                        <g id="p-link" transform="translate(13.409524, 0.000000)">
                            <rect id="p" x="0" y="0" width="1.21904762" height="1.21904762"></rect>
                        </g>
                        <g id="p-link" transform="translate(13.409524, 1.219048)">
                            <rect id="p" x="0" y="0" width="1.21904762" height="1.21904762"></rect>
                        </g>
                        <g id="p-link" transform="translate(13.409524, 3.657143)">
                            <rect id="p" x="0" y="0" width="1.21904762" height="1.21904762"></rect>
                        </g>
                        <g id="p-link" transform="translate(13.409524, 6.095238)">
                            <rect id="p" x="0" y="0" width="1.21904762" height="1.21904762"></rect>
                        </g>
                        <g id="p-link" transform="translate(13.409524, 8.533333)">
                            <rect id="p" x="0" y="0" width="1.21904762" height="1.21904762"></rect>
                        </g>
                        <g id="p-link" transform="translate(13.409524, 13.409524)">
                            <rect id="p" x="0" y="0" width="1.21904762" height="1.21904762"></rect>
                        </g>
                        <g id="p-link" transform="translate(13.409524, 15.847619)">
                            <rect id="p" x="0" y="0" width="1.21904762" height="1.21904762"></rect>
                        </g>
                        <g id="p-link" transform="translate(13.409524, 18.285714)">
                            <rect id="p" x="0" y="0" width="1.21904762" height="1.21904762"></rect>
                        </g>
                        <g id="p-link" transform="translate(13.409524, 19.504762)">
                            <rect id="p" x="0" y="0" width="1.21904762" height="1.21904762"></rect>
                        </g>
                        <g id="p-link" transform="translate(13.409524, 20.723810)">
                            <rect id="p" x="0" y="0" width="1.21904762" height="1.21904762"></rect>
                        </g>
                        <g id="p-link" transform="translate(13.409524, 24.380952)">
                            <rect id="p" x="0" y="0" width="1.21904762" height="1.21904762"></rect>
                        </g>
                        <g id="p-link" transform="translate(14.628571, 0.000000)">
                            <rect id="p" x="0" y="0" width="1.21904762" height="1.21904762"></rect>
                        </g>
                        <g id="p-link" transform="translate(14.628571, 2.438095)">
                            <rect id="p" x="0" y="0" width="1.21904762" height="1.21904762"></rect>
                        </g>
                        <g id="p-link" transform="translate(14.628571, 4.876190)">
                            <rect id="p" x="0" y="0" width="1.21904762" height="1.21904762"></rect>
                        </g>
                        <g id="p-link" transform="translate(14.628571, 6.095238)">
                            <rect id="p" x="0" y="0" width="1.21904762" height="1.21904762"></rect>
                        </g>
                        <g id="p-link" transform="translate(14.628571, 7.314286)">
                            <rect id="p" x="0" y="0" width="1.21904762" height="1.21904762"></rect>
                        </g>
                        <g id="p-link" transform="translate(14.628571, 8.533333)">
                            <rect id="p" x="0" y="0" width="1.21904762" height="1.21904762"></rect>
                        </g>
                        <g id="p-link" transform="translate(14.628571, 12.190476)">
                            <rect id="p" x="0" y="0" width="1.21904762" height="1.21904762"></rect>
                        </g>
                        <g id="p-link" transform="translate(14.628571, 14.628571)">
                            <rect id="p" x="0" y="0" width="1.21904762" height="1.21904762"></rect>
                        </g>
                        <g id="p-link" transform="translate(14.628571, 18.285714)">
                            <rect id="p" x="0" y="0" width="1.21904762" height="1.21904762"></rect>
                        </g>
                        <g id="p-link" transform="translate(14.628571, 21.942857)">
                            <rect id="p" x="0" y="0" width="1.21904762" height="1.21904762"></rect>
                        </g>
                        <g id="p-link" transform="translate(14.628571, 24.380952)">
                            <rect id="p" x="0" y="0" width="1.21904762" height="1.21904762"></rect>
                        </g>
                        <g id="p-link" transform="translate(15.847619, 12.190476)">
                            <rect id="p" x="0" y="0" width="1.21904762" height="1.21904762"></rect>
                        </g>
                        <g id="p-link" transform="translate(15.847619, 17.066667)">
                            <rect id="p" x="0" y="0" width="1.21904762" height="1.21904762"></rect>
                        </g>
                        <g id="p-link" transform="translate(15.847619, 18.285714)">
                            <rect id="p" x="0" y="0" width="1.21904762" height="1.21904762"></rect>
                        </g>
                        <g id="p-link" transform="translate(15.847619, 23.161905)">
                            <rect id="p" x="0" y="0" width="1.21904762" height="1.21904762"></rect>
                        </g>
                        <g id="p-link" transform="translate(17.066667, 0.000000)">
                            <rect id="p" x="0" y="0" width="1.21904762" height="1.21904762"></rect>
                        </g>
                        <g id="p-link" transform="translate(17.066667, 1.219048)">
                            <rect id="p" x="0" y="0" width="1.21904762" height="1.21904762"></rect>
                        </g>
                        <g id="p-link" transform="translate(17.066667, 2.438095)">
                            <rect id="p" x="0" y="0" width="1.21904762" height="1.21904762"></rect>
                        </g>
                        <g id="p-link" transform="translate(17.066667, 3.657143)">
                            <rect id="p" x="0" y="0" width="1.21904762" height="1.21904762"></rect>
                        </g>
                        <g id="p-link" transform="translate(17.066667, 4.876190)">
                            <rect id="p" x="0" y="0" width="1.21904762" height="1.21904762"></rect>
                        </g>
                        <g id="p-link" transform="translate(17.066667, 6.095238)">
                            <rect id="p" x="0" y="0" width="1.21904762" height="1.21904762"></rect>
                        </g>
                        <g id="p-link" transform="translate(17.066667, 7.314286)">
                            <rect id="p" x="0" y="0" width="1.21904762" height="1.21904762"></rect>
                        </g>
                        <g id="p-link" transform="translate(17.066667, 9.752381)">
                            <rect id="p" x="0" y="0" width="1.21904762" height="1.21904762"></rect>
                        </g>
                        <g id="p-link" transform="translate(17.066667, 10.971429)">
                            <rect id="p" x="0" y="0" width="1.21904762" height="1.21904762"></rect>
                        </g>
                        <g id="p-link" transform="translate(17.066667, 14.628571)">
                            <rect id="p" x="0" y="0" width="1.21904762" height="1.21904762"></rect>
                        </g>
                        <g id="p-link" transform="translate(17.066667, 19.504762)">
                            <rect id="p" x="0" y="0" width="1.21904762" height="1.21904762"></rect>
                        </g>
                        <g id="p-link" transform="translate(17.066667, 23.161905)">
                            <rect id="p" x="0" y="0" width="1.21904762" height="1.21904762"></rect>
                        </g>
                        <g id="p-link" transform="translate(18.285714, 0.000000)">
                            <rect id="p" x="0" y="0" width="1.21904762" height="1.21904762"></rect>
                        </g>
                        <g id="p-link" transform="translate(18.285714, 7.314286)">
                            <rect id="p" x="0" y="0" width="1.21904762" height="1.21904762"></rect>
                        </g>
                        <g id="p-link" transform="translate(18.285714, 9.752381)">
                            <rect id="p" x="0" y="0" width="1.21904762" height="1.21904762"></rect>
                        </g>
                        <g id="p-link" transform="translate(18.285714, 15.847619)">
                            <rect id="p" x="0" y="0" width="1.21904762" height="1.21904762"></rect>
                        </g>
                        <g id="p-link" transform="translate(18.285714, 17.066667)">
                            <rect id="p" x="0" y="0" width="1.21904762" height="1.21904762"></rect>
                        </g>
                        <g id="p-link" transform="translate(18.285714, 18.285714)">
                            <rect id="p" x="0" y="0" width="1.21904762" height="1.21904762"></rect>
                        </g>
                        <g id="p-link" transform="translate(18.285714, 19.504762)">
                            <rect id="p" x="0" y="0" width="1.21904762" height="1.21904762"></rect>
                        </g>
                        <g id="p-link" transform="translate(18.285714, 20.723810)">
                            <rect id="p" x="0" y="0" width="1.21904762" height="1.21904762"></rect>
                        </g>
                        <g id="p-link" transform="translate(19.504762, 0.000000)">
                            <rect id="p" x="0" y="0" width="1.21904762" height="1.21904762"></rect>
                        </g>
                        <g id="p-link" transform="translate(19.504762, 2.438095)">
                            <rect id="p" x="0" y="0" width="1.21904762" height="1.21904762"></rect>
                        </g>
                        <g id="p-link" transform="translate(19.504762, 3.657143)">
                            <rect id="p" x="0" y="0" width="1.21904762" height="1.21904762"></rect>
                        </g>
                        <g id="p-link" transform="translate(19.504762, 4.876190)">
                            <rect id="p" x="0" y="0" width="1.21904762" height="1.21904762"></rect>
                        </g>
                        <g id="p-link" transform="translate(19.504762, 7.314286)">
                            <rect id="p" x="0" y="0" width="1.21904762" height="1.21904762"></rect>
                        </g>
                        <g id="p-link" transform="translate(19.504762, 9.752381)">
                            <rect id="p" x="0" y="0" width="1.21904762" height="1.21904762"></rect>
                        </g>
                        <g id="p-link" transform="translate(19.504762, 14.628571)">
                            <rect id="p" x="0" y="0" width="1.21904762" height="1.21904762"></rect>
                        </g>
                        <g id="p-link" transform="translate(19.504762, 15.847619)">
                            <rect id="p" x="0" y="0" width="1.21904762" height="1.21904762"></rect>
                        </g>
                        <g id="p-link" transform="translate(19.504762, 18.285714)">
                            <rect id="p" x="0" y="0" width="1.21904762" height="1.21904762"></rect>
                        </g>
                        <g id="p-link" transform="translate(19.504762, 19.504762)">
                            <rect id="p" x="0" y="0" width="1.21904762" height="1.21904762"></rect>
                        </g>
                        <g id="p-link" transform="translate(19.504762, 21.942857)">
                            <rect id="p" x="0" y="0" width="1.21904762" height="1.21904762"></rect>
                        </g>
                        <g id="p-link" transform="translate(19.504762, 23.161905)">
                            <rect id="p" x="0" y="0" width="1.21904762" height="1.21904762"></rect>
                        </g>
                        <g id="p-link" transform="translate(19.504762, 24.380952)">
                            <rect id="p" x="0" y="0" width="1.21904762" height="1.21904762"></rect>
                        </g>
                        <g id="p-link" transform="translate(20.723810, 0.000000)">
                            <rect id="p" x="0" y="0" width="1.21904762" height="1.21904762"></rect>
                        </g>
                        <g id="p-link" transform="translate(20.723810, 2.438095)">
                            <rect id="p" x="0" y="0" width="1.21904762" height="1.21904762"></rect>
                        </g>
                        <g id="p-link" transform="translate(20.723810, 3.657143)">
                            <rect id="p" x="0" y="0" width="1.21904762" height="1.21904762"></rect>
                        </g>
                        <g id="p-link" transform="translate(20.723810, 4.876190)">
                            <rect id="p" x="0" y="0" width="1.21904762" height="1.21904762"></rect>
                        </g>
                        <g id="p-link" transform="translate(20.723810, 7.314286)">
                            <rect id="p" x="0" y="0" width="1.21904762" height="1.21904762"></rect>
                        </g>
                        <g id="p-link" transform="translate(20.723810, 10.971429)">
                            <rect id="p" x="0" y="0" width="1.21904762" height="1.21904762"></rect>
                        </g>
                        <g id="p-link" transform="translate(20.723810, 12.190476)">
                            <rect id="p" x="0" y="0" width="1.21904762" height="1.21904762"></rect>
                        </g>
                        <g id="p-link" transform="translate(20.723810, 13.409524)">
                            <rect id="p" x="0" y="0" width="1.21904762" height="1.21904762"></rect>
                        </g>
                        <g id="p-link" transform="translate(20.723810, 14.628571)">
                            <rect id="p" x="0" y="0" width="1.21904762" height="1.21904762"></rect>
                        </g>
                        <g id="p-link" transform="translate(20.723810, 15.847619)">
                            <rect id="p" x="0" y="0" width="1.21904762" height="1.21904762"></rect>
                        </g>
                        <g id="p-link" transform="translate(20.723810, 19.504762)">
                            <rect id="p" x="0" y="0" width="1.21904762" height="1.21904762"></rect>
                        </g>
                        <g id="p-link" transform="translate(20.723810, 21.942857)">
                            <rect id="p" x="0" y="0" width="1.21904762" height="1.21904762"></rect>
                        </g>
                        <g id="p-link" transform="translate(20.723810, 23.161905)">
                            <rect id="p" x="0" y="0" width="1.21904762" height="1.21904762"></rect>
                        </g>
                        <g id="p-link" transform="translate(20.723810, 24.380952)">
                            <rect id="p" x="0" y="0" width="1.21904762" height="1.21904762"></rect>
                        </g>
                        <g id="p-link" transform="translate(21.942857, 0.000000)">
                            <rect id="p" x="0" y="0" width="1.21904762" height="1.21904762"></rect>
                        </g>
                        <g id="p-link" transform="translate(21.942857, 2.438095)">
                            <rect id="p" x="0" y="0" width="1.21904762" height="1.21904762"></rect>
                        </g>
                        <g id="p-link" transform="translate(21.942857, 3.657143)">
                            <rect id="p" x="0" y="0" width="1.21904762" height="1.21904762"></rect>
                        </g>
                        <g id="p-link" transform="translate(21.942857, 4.876190)">
                            <rect id="p" x="0" y="0" width="1.21904762" height="1.21904762"></rect>
                        </g>
                        <g id="p-link" transform="translate(21.942857, 7.314286)">
                            <rect id="p" x="0" y="0" width="1.21904762" height="1.21904762"></rect>
                        </g>
                        <g id="p-link" transform="translate(21.942857, 9.752381)">
                            <rect id="p" x="0" y="0" width="1.21904762" height="1.21904762"></rect>
                        </g>
                        <g id="p-link" transform="translate(21.942857, 12.190476)">
                            <rect id="p" x="0" y="0" width="1.21904762" height="1.21904762"></rect>
                        </g>
                        <g id="p-link" transform="translate(21.942857, 20.723810)">
                            <rect id="p" x="0" y="0" width="1.21904762" height="1.21904762"></rect>
                        </g>
                        <g id="p-link" transform="translate(21.942857, 21.942857)">
                            <rect id="p" x="0" y="0" width="1.21904762" height="1.21904762"></rect>
                        </g>
                        <g id="p-link" transform="translate(23.161905, 0.000000)">
                            <rect id="p" x="0" y="0" width="1.21904762" height="1.21904762"></rect>
                        </g>
                        <g id="p-link" transform="translate(23.161905, 7.314286)">
                            <rect id="p" x="0" y="0" width="1.21904762" height="1.21904762"></rect>
                        </g>
                        <g id="p-link" transform="translate(23.161905, 9.752381)">
                            <rect id="p" x="0" y="0" width="1.21904762" height="1.21904762"></rect>
                        </g>
                        <g id="p-link" transform="translate(23.161905, 10.971429)">
                            <rect id="p" x="0" y="0" width="1.21904762" height="1.21904762"></rect>
                        </g>
                        <g id="p-link" transform="translate(23.161905, 14.628571)">
                            <rect id="p" x="0" y="0" width="1.21904762" height="1.21904762"></rect>
                        </g>
                        <g id="p-link" transform="translate(23.161905, 17.066667)">
                            <rect id="p" x="0" y="0" width="1.21904762" height="1.21904762"></rect>
                        </g>
                        <g id="p-link" transform="translate(23.161905, 20.723810)">
                            <rect id="p" x="0" y="0" width="1.21904762" height="1.21904762"></rect>
                        </g>
                        <g id="p-link" transform="translate(23.161905, 24.380952)">
                            <rect id="p" x="0" y="0" width="1.21904762" height="1.21904762"></rect>
                        </g>
                        <g id="p-link" transform="translate(24.380952, 0.000000)">
                            <rect id="p" x="0" y="0" width="1.21904762" height="1.21904762"></rect>
                        </g>
                        <g id="p-link" transform="translate(24.380952, 1.219048)">
                            <rect id="p" x="0" y="0" width="1.21904762" height="1.21904762"></rect>
                        </g>
                        <g id="p-link" transform="translate(24.380952, 2.438095)">
                            <rect id="p" x="0" y="0" width="1.21904762" height="1.21904762"></rect>
                        </g>
                        <g id="p-link" transform="translate(24.380952, 3.657143)">
                            <rect id="p" x="0" y="0" width="1.21904762" height="1.21904762"></rect>
                        </g>
                        <g id="p-link" transform="translate(24.380952, 4.876190)">
                            <rect id="p" x="0" y="0" width="1.21904762" height="1.21904762"></rect>
                        </g>
                        <g id="p-link" transform="translate(24.380952, 6.095238)">
                            <rect id="p" x="0" y="0" width="1.21904762" height="1.21904762"></rect>
                        </g>
                        <g id="p-link" transform="translate(24.380952, 7.314286)">
                            <rect id="p" x="0" y="0" width="1.21904762" height="1.21904762"></rect>
                        </g>
                        <g id="p-link" transform="translate(24.380952, 10.971429)">
                            <rect id="p" x="0" y="0" width="1.21904762" height="1.21904762"></rect>
                        </g>
                        <g id="p-link" transform="translate(24.380952, 12.190476)">
                            <rect id="p" x="0" y="0" width="1.21904762" height="1.21904762"></rect>
                        </g>
                        <g id="p-link" transform="translate(24.380952, 13.409524)">
                            <rect id="p" x="0" y="0" width="1.21904762" height="1.21904762"></rect>
                        </g>
                        <g id="p-link" transform="translate(24.380952, 14.628571)">
                            <rect id="p" x="0" y="0" width="1.21904762" height="1.21904762"></rect>
                        </g>
                        <g id="p-link" transform="translate(24.380952, 19.504762)">
                            <rect id="p" x="0" y="0" width="1.21904762" height="1.21904762"></rect>
                        </g>
                        <g id="p-link" transform="translate(24.380952, 20.723810)">
                            <rect id="p" x="0" y="0" width="1.21904762" height="1.21904762"></rect>
                        </g>
                        <g id="p-link" transform="translate(24.380952, 21.942857)">
                            <rect id="p" x="0" y="0" width="1.21904762" height="1.21904762"></rect>
                        </g>
                    </g>
                </g>
            </g>
        </g>
    </g>
</svg>